<svg width="24" height="24" viewBox="0 0 24 24" fill="none" xmlns="http://www.w3.org/2000/svg">
<path d="M12 4C7.58135 4 4 7.58135 4 12C4 16.4187 7.58135 20 12 20C16.4187 20 20 16.4187 20 12C20 7.58135 16.4187 4 12 4ZM12.7559 15.6308H11.3429V14.4154H12.7559V15.6308ZM12.772 12.8214V13.5112H11.3429V11.4905H12.0494C12.6411 11.4905 13.1172 11.0143 13.1172 10.4227C13.1172 9.83102 12.6411 9.35489 12.0494 9.35489C11.4578 9.35489 10.9816 9.83102 10.9816 10.4227H9.55258C9.55258 9.04303 10.6698 7.92586 12.0494 7.92586C13.429 7.92586 14.5462 9.04306 14.5462 10.4227C14.5462 11.5565 13.807 12.5094 12.7719 12.8214L12.772 12.8214Z" fill="#08ADCD"/>
</svg>
