<svg width="42" height="40" viewBox="0 0 42 40" fill="none" xmlns="http://www.w3.org/2000/svg">
<path opacity="0.1" d="M38.3369 21.5887C36.674 30.7137 27.5283 38.1797 19.2139 39.8388C10.8996 41.4978 -1.16715 30.0028 0.0909774 21.5887C1.34911 13.1745 7.15815 4.58284 17.5511 2.92372C27.944 1.26461 39.9997 12.4636 38.3369 21.5887Z" fill="#08ADCD"/>
<path d="M40.4713 18.7401C39.6643 23.1688 37.0339 27.2241 33.5596 30.3847C30.0851 33.5454 25.8006 35.7798 21.7424 36.5895C17.8189 37.3724 12.8825 35.1272 9.03209 31.4977C5.18361 27.8701 2.61702 23.0447 3.21224 18.9008C4.44716 10.3034 10.1301 2.27508 20.2562 0.658561C25.2566 -0.139691 30.7223 2.1562 34.7548 5.82316C38.7964 9.49827 41.259 14.4179 40.4713 18.7401Z" stroke="#08ADCD"/>
<path d="M20.7898 20.7479C20.8749 19.922 21.1314 19.2583 21.5592 18.7567C22.0033 18.2567 22.623 17.7187 23.4183 17.1426C24.0014 16.7211 24.4307 16.3641 24.7062 16.0715C24.9995 15.7647 25.1674 15.4048 25.21 14.9919C25.2705 14.4042 25.0752 13.9187 24.6241 13.5351C24.1908 13.1374 23.5776 12.8977 22.7846 12.8159C22.024 12.7376 21.328 12.8264 20.6965 13.0823C20.0828 13.324 19.545 13.702 19.0831 14.2161L16.3201 12.2221C17.1046 11.2757 18.0999 10.5838 19.3062 10.1463C20.5287 9.71052 21.9329 9.57432 23.5189 9.73773C25.3799 9.92948 26.8287 10.472 27.8652 11.3652C28.9178 12.2602 29.373 13.3985 29.2306 14.7802C29.1635 15.4313 28.9913 15.9914 28.714 16.4604C28.4529 16.931 28.1425 17.3244 27.7829 17.6404C27.441 17.9422 26.9964 18.2897 26.4489 18.6827C25.7961 19.1451 25.3133 19.5447 25.0006 19.8817C24.6894 20.2027 24.5077 20.6173 24.4553 21.1255L20.7898 20.7479ZM22.0186 26.9174C21.3551 26.849 20.8181 26.585 20.4075 26.1254C20.0147 25.6516 19.8494 25.1129 19.9116 24.5094C19.9738 23.9059 20.2438 23.4282 20.7217 23.0762C21.2012 22.7083 21.7807 22.5593 22.4604 22.6294C23.1401 22.6994 23.6772 22.9634 24.0716 23.4213C24.4676 23.8634 24.6346 24.3862 24.5724 24.9897C24.5102 25.5932 24.2305 26.086 23.7331 26.4681C23.2537 26.836 22.6821 26.9858 22.0186 26.9174Z" fill="#08ADCD"/>
</svg>
